<svg xmlns="http://www.w3.org/2000/svg" width="900" height="420" viewBox="0 0 900 420"><rect width="900" height="420" fill="white"/><text x="450" y="45" text-anchor="middle" font-family="Arial" font-size="28" font-weight="700">Decision Trees and Random Forests</text><circle cx="230" cy="115" r="38" fill="#dbeafe" stroke="#1d4ed8"/><text x="230" y="122" text-anchor="middle" font-family="Arial" font-size="16">Volume?</text><circle cx="150" cy="220" r="38" fill="#e0f2fe" stroke="#0369a1"/><text x="150" y="226" text-anchor="middle" font-family="Arial" font-size="16">Brand?</text><circle cx="310" cy="220" r="38" fill="#e0f2fe" stroke="#0369a1"/><text x="310" y="226" text-anchor="middle" font-family="Arial" font-size="16">Fat?</text><rect x="95" y="305" width="110" height="42" rx="8" fill="#fef9c3" stroke="#854d0e"/><text x="150" y="332" text-anchor="middle" font-family="Arial" font-size="15">Price 1</text><rect x="255" y="305" width="110" height="42" rx="8" fill="#fef9c3" stroke="#854d0e"/><text x="310" y="332" text-anchor="middle" font-family="Arial" font-size="15">Price 2</text><line x1="214" y1="145" x2="170" y2="190" stroke="#334155" stroke-width="3"/><line x1="246" y1="145" x2="290" y2="190" stroke="#334155" stroke-width="3"/><line x1="150" y1="258" x2="150" y2="305" stroke="#334155" stroke-width="3"/><line x1="310" y1="258" x2="310" y2="305" stroke="#334155" stroke-width="3"/><text x="230" y="385" text-anchor="middle" font-family="Arial" font-size="20" font-weight="700">One Tree</text><rect x="510" y="120" width="90" height="120" rx="10" fill="#dcfce7" stroke="#166534"/><rect x="610" y="105" width="90" height="135" rx="10" fill="#bbf7d0" stroke="#166534"/><rect x="710" y="130" width="90" height="110" rx="10" fill="#86efac" stroke="#166534"/><text x="555" y="185" text-anchor="middle" font-family="Arial" font-size="18">Tree</text><text x="655" y="180" text-anchor="middle" font-family="Arial" font-size="18">Tree</text><text x="755" y="190" text-anchor="middle" font-family="Arial" font-size="18">Tree</text><path d="M655 260 L655 305" stroke="#334155" stroke-width="3"/><rect x="570" y="305" width="170" height="55" rx="12" fill="#fef9c3" stroke="#854d0e"/><text x="655" y="340" text-anchor="middle" font-family="Arial" font-size="19">Average Prediction</text><text x="655" y="385" text-anchor="middle" font-family="Arial" font-size="20" font-weight="700">Random Forest</text></svg>