<svg xmlns="http://www.w3.org/2000/svg" width="900" height="420" viewBox="0 0 900 420"><rect width="900" height="420" fill="white"/><text x="450" y="45" text-anchor="middle" font-family="Arial" font-size="28" font-weight="700">XGBoost and Model Comparison</text><rect x="70" y="105" width="130" height="65" rx="10" fill="#e0f2fe" stroke="#0369a1"/><text x="135" y="145" text-anchor="middle" font-family="Arial" font-size="18">Tree 1</text><path d="M205 137 L265 137" stroke="#334155" stroke-width="3" marker-end="url(#a)"/><rect x="270" y="105" width="150" height="65" rx="10" fill="#dbeafe" stroke="#1d4ed8"/><text x="345" y="132" text-anchor="middle" font-family="Arial" font-size="17">Correct</text><text x="345" y="154" text-anchor="middle" font-family="Arial" font-size="17">errors</text><path d="M425 137 L485 137" stroke="#334155" stroke-width="3" marker-end="url(#a)"/><rect x="490" y="105" width="130" height="65" rx="10" fill="#e0f2fe" stroke="#0369a1"/><text x="555" y="145" text-anchor="middle" font-family="Arial" font-size="18">Tree 2</text><path d="M625 137 L685 137" stroke="#334155" stroke-width="3" marker-end="url(#a)"/><rect x="690" y="105" width="140" height="65" rx="10" fill="#dcfce7" stroke="#166534"/><text x="760" y="145" text-anchor="middle" font-family="Arial" font-size="18">Prediction</text><rect x="180" y="245" width="85" height="90" fill="#f1f5f9" stroke="#334155"/><rect x="315" y="210" width="85" height="125" fill="#e2e8f0" stroke="#334155"/><rect x="450" y="175" width="85" height="160" fill="#cbd5e1" stroke="#334155"/><rect x="585" y="145" width="85" height="190" fill="#94a3b8" stroke="#334155"/><text x="222" y="360" text-anchor="middle" font-family="Arial" font-size="16">OLS</text><text x="357" y="360" text-anchor="middle" font-family="Arial" font-size="16">Tree</text><text x="492" y="360" text-anchor="middle" font-family="Arial" font-size="16">Forest</text><text x="627" y="360" text-anchor="middle" font-family="Arial" font-size="16">XGBoost</text><text x="450" y="395" text-anchor="middle" font-family="Arial" font-size="18">Compare models using test-sample error</text><defs><marker id="a" markerWidth="10" markerHeight="10" refX="5" refY="3" orient="auto"><path d="M0,0 L0,6 L6,3 z" fill="#334155"/></marker></defs></svg>